<?xml version="1.0" standalone="no"?>
<!DOCTYPE svg PUBLIC "-//W3C//DTD SVG 20010904//EN"
 "http://www.w3.org/TR/2001/REC-SVG-20010904/DTD/svg10.dtd">
<svg version="1.0" xmlns="http://www.w3.org/2000/svg"
 width="512.000000pt" height="512.000000pt" viewBox="0 0 512.000000 512.000000"
 preserveAspectRatio="xMidYMid meet">

<g transform="translate(0.000000,512.000000) scale(0.100000,-0.100000)"
fill="#000000" stroke="none">
<path d="M2365 4545 c-16 -8 -48 -14 -69 -15 -22 0 -53 -4 -70 -10 -17 -5 -80
-21 -141 -36 -60 -14 -124 -35 -141 -45 -29 -18 -83 -39 -191 -74 -22 -7 -59
-27 -82 -43 -22 -16 -61 -35 -86 -42 -26 -7 -49 -19 -52 -27 -3 -7 -11 -13
-17 -13 -7 0 -39 -19 -72 -42 -32 -24 -95 -61 -139 -83 -44 -22 -85 -49 -90
-60 -6 -11 -36 -45 -67 -75 -33 -32 -59 -68 -63 -85 -4 -17 -18 -57 -32 -90
-18 -45 -26 -84 -30 -155 -2 -52 -11 -112 -20 -132 -18 -42 -12 -91 15 -128 9
-14 17 -41 18 -60 1 -89 16 -397 24 -502 6 -75 5 -141 -2 -183 -7 -49 -7 -80
2 -113 11 -46 11 -47 -20 -72 -21 -17 -29 -31 -25 -42 5 -11 1 -16 -12 -15
-17 2 -18 -10 -20 -143 -1 -80 -4 -172 -5 -205 -2 -47 3 -71 21 -105 13 -25
32 -62 42 -82 19 -37 52 -63 68 -54 13 8 72 -80 65 -98 -3 -9 -10 -16 -14 -16
-17 0 -19 -36 -6 -75 12 -34 18 -40 44 -41 57 -1 72 -31 47 -96 -5 -13 -2 -18
11 -18 35 0 44 -16 70 -121 14 -57 36 -140 48 -184 13 -44 31 -120 40 -170 16
-85 16 -95 -2 -195 -17 -95 -21 -105 -41 -108 -18 -3 -22 -8 -17 -27 5 -18 1
-25 -14 -30 -16 -5 -18 -10 -10 -25 7 -13 6 -21 -5 -30 -8 -7 -12 -17 -8 -24
11 -16 11 -106 1 -112 -4 -3 -4 -13 1 -22 4 -9 7 -48 6 -87 -1 -38 2 -75 7
-81 5 -7 4 -22 -3 -37 -8 -18 -8 -30 0 -46 9 -16 9 -26 0 -42 -8 -16 -8 -27 2
-45 9 -18 10 -30 1 -48 -13 -29 -7 -36 30 -36 30 0 36 16 17 51 -8 16 -7 25 5
38 14 16 14 19 0 40 -12 17 -13 26 -5 34 16 16 44 -14 43 -50 0 -15 9 -39 19
-52 11 -14 17 -32 14 -43 -6 -17 26 -18 989 -18 l995 0 -4 62 c-5 72 -1 82 26
68 24 -13 26 7 4 36 -8 10 -15 26 -15 34 0 8 -9 26 -20 40 -28 36 -25 64 24
260 51 201 73 261 125 345 21 33 42 71 46 85 4 14 11 30 16 36 26 32 149 373
149 412 0 26 32 52 63 52 l27 0 -20 20 c-30 30 -22 100 15 122 8 5 11 24 7 56
-5 57 12 97 64 148 41 42 56 42 97 4 18 -16 39 -30 48 -30 19 0 40 50 70 170
12 47 32 106 45 132 28 55 31 113 9 184 -8 27 -15 63 -15 80 0 17 -7 54 -15
82 -16 54 -49 82 -94 82 -11 0 -22 3 -25 8 -4 6 2 99 18 302 2 25 9 85 15 133
6 49 9 92 6 97 -3 4 0 21 5 36 8 19 7 43 0 80 -9 43 -9 57 4 76 13 20 13 32
-1 103 -8 44 -16 116 -18 160 -1 50 -8 92 -18 112 -9 17 -28 65 -41 107 -14
41 -41 112 -60 156 -20 45 -36 87 -36 95 0 8 -10 31 -22 52 -85 150 -409 343
-736 439 -46 13 -94 31 -107 40 -24 15 -112 34 -255 54 -41 6 -103 15 -136 20
-91 15 -283 11 -319 -5z m-183 -966 c15 -10 31 -19 36 -19 5 0 19 -11 32 -25
28 -30 40 -32 40 -5 0 30 45 27 66 -5 11 -17 23 -24 34 -20 10 3 37 -1 60 -9
38 -13 48 -13 91 1 26 9 47 21 46 27 -3 17 69 19 101 2 16 -8 38 -13 48 -10
11 3 54 -8 97 -25 l77 -29 -6 24 c-5 21 0 27 42 46 48 22 174 33 174 16 0 -4
7 -5 15 -2 9 4 15 1 15 -7 0 -16 79 -69 103 -69 25 0 47 -11 47 -25 0 -7 18
-27 40 -46 25 -21 40 -43 40 -57 0 -12 7 -25 15 -28 11 -4 13 -14 9 -33 -4
-14 -9 -45 -11 -69 -4 -29 -11 -46 -25 -53 -13 -7 -18 -17 -15 -30 6 -23 11
-22 -133 -23 -69 -1 -115 -5 -115 -11 -2 -45 -96 -85 -202 -85 l-71 0 -46 -53
c-39 -45 -46 -62 -52 -111 -5 -40 -12 -60 -25 -67 -11 -5 -19 -21 -19 -34 0
-14 -16 -47 -35 -74 -54 -74 -50 -102 33 -223 37 -55 73 -109 81 -121 8 -12
24 -32 34 -44 24 -27 16 -57 -13 -48 -25 8 -27 -18 -6 -67 8 -18 18 -42 21
-53 7 -18 8 -18 19 8 l12 27 21 -22 c11 -13 28 -38 38 -56 15 -32 15 -35 -1
-53 -18 -20 -104 -28 -104 -9 0 15 -37 12 -71 -5 -16 -9 -54 -38 -83 -64 -46
-42 -60 -49 -111 -55 -56 -6 -59 -5 -109 33 -28 21 -65 46 -83 55 -42 21 -107
20 -145 -2 -29 -17 -30 -17 -49 7 -11 13 -19 39 -19 58 0 40 29 72 103 115 59
34 64 62 10 52 -61 -10 -145 -61 -180 -107 -36 -48 -46 -83 -23 -80 14 3 55
-37 125 -119 27 -32 18 -43 -28 -38 -10 1 -24 -3 -30 -8 -7 -6 -34 -22 -60
-37 -64 -35 -112 -40 -139 -13 -27 27 -65 17 -105 -30 -17 -20 -46 -51 -62
-69 -17 -17 -31 -35 -31 -39 0 -4 -7 -15 -16 -25 -13 -15 -14 -26 -5 -69 6
-28 11 -69 11 -92 0 -32 8 -50 35 -84 19 -23 35 -52 35 -63 0 -12 6 -21 14
-21 24 0 27 -30 4 -60 l-21 -29 -19 21 c-10 12 -16 29 -12 40 4 13 0 18 -15
18 -14 0 -25 11 -35 35 -8 19 -20 35 -26 35 -6 0 -10 8 -9 18 3 31 -1 37 -40
79 -27 27 -38 47 -35 60 5 19 -24 54 -49 60 -7 1 -25 6 -42 9 -16 4 -40 16
-52 27 -19 17 -25 18 -38 7 -8 -7 -19 -10 -22 -6 -4 4 -2 10 4 14 8 5 1 17
-22 35 -19 15 -35 36 -35 47 0 10 -4 21 -8 24 -5 3 -14 38 -21 78 -7 40 -16
89 -21 108 -25 98 -30 235 -15 360 9 69 20 162 25 207 5 45 16 108 26 140 43
148 68 220 85 245 11 14 19 29 19 32 0 3 13 24 29 48 16 25 31 64 34 91 5 36
15 56 42 84 19 20 35 42 35 50 0 7 7 13 15 13 8 0 15 -6 15 -14 0 -9 7 -12 20
-9 25 7 25 3 -1 -46 -11 -22 -18 -44 -15 -49 3 -5 -4 -18 -14 -30 -24 -25 -25
-32 -6 -32 16 0 31 -34 21 -50 -3 -5 -12 -10 -18 -10 -7 0 -17 -10 -23 -23 -6
-12 -25 -47 -42 -77 -17 -30 -35 -82 -41 -115 -6 -33 -13 -70 -17 -82 -10 -37
13 -27 36 15 15 26 37 45 71 62 27 12 53 28 56 33 3 6 1 7 -5 3 -6 -3 -14 -1
-18 5 -5 9 0 10 18 6 18 -5 40 1 74 21 44 24 58 27 149 27 87 0 107 -3 150
-25 55 -28 70 -57 33 -64 -13 -2 -62 -9 -111 -15 -48 -7 -97 -16 -110 -21 -12
-5 -39 -12 -60 -15 -28 -5 -51 -19 -88 -58 -27 -28 -53 -63 -56 -77 -4 -14
-17 -45 -30 -70 l-24 -45 28 -11 c21 -9 29 -21 33 -45 l5 -32 105 -19 c58 -11
119 -24 135 -30 17 -6 47 -13 68 -15 50 -7 48 -35 -3 -44 -21 -4 -27 -7 -15
-9 38 -5 100 2 143 17 34 11 47 12 58 3 7 -7 11 -17 7 -23 -4 -6 0 -8 8 -5 8
3 41 13 74 23 105 30 137 51 174 116 19 33 54 81 78 107 24 26 46 55 49 64 3
10 11 18 18 18 19 0 77 31 72 38 -2 4 -1 26 4 50 6 35 5 42 -9 42 -9 0 -25 -6
-36 -13 -11 -8 -41 -15 -67 -16 -42 -2 -48 1 -48 18 0 11 -5 23 -10 26 -8 5
-8 11 0 20 7 9 6 16 -5 25 -10 8 -14 28 -13 56 1 27 -7 61 -22 91 -22 47 -24
48 -109 75 -47 15 -96 30 -108 33 -13 4 -44 18 -70 33 -41 23 -45 27 -25 30
23 4 31 27 10 34 -7 3 -37 0 -68 -6 -70 -13 -138 -12 -153 3 -6 6 -24 11 -40
11 -25 0 -28 3 -22 23 3 12 3 18 -2 12 -4 -5 -15 -10 -23 -10 -8 0 -14 -6 -12
-12 1 -7 -5 -13 -15 -13 -9 0 -13 3 -10 6 9 9 -12 46 -23 39 -4 -3 -6 4 -3 16
3 11 12 23 19 26 8 3 14 11 14 19 0 21 -17 17 -23 -6 -4 -14 -12 -19 -31 -18
-31 3 -31 5 -9 30 13 15 15 23 7 36 -8 12 -8 22 0 35 8 13 8 20 -3 26 -18 11
-7 41 15 41 9 0 14 -6 11 -12 -2 -7 0 -22 5 -33 8 -18 8 -18 4 3 -5 28 1 28
30 -3 30 -33 48 -33 40 0 -5 18 -2 27 9 31 8 4 15 16 15 28 0 11 7 41 14 66
11 34 16 41 21 28 9 -23 21 -23 42 2 10 11 23 20 30 20 7 0 13 7 13 15 0 9 17
33 38 55 33 34 43 39 92 43 78 5 121 -2 152 -24z m1135 -764 c12 -8 35 -17 51
-19 27 -3 102 -50 102 -64 0 -3 -7 -13 -15 -22 -12 -13 -24 -15 -62 -9 -85 13
-276 58 -285 67 -18 18 30 42 103 51 41 5 76 9 79 10 3 0 15 -6 27 -14z
m-1337 -145 c0 -13 -11 -13 -30 0 -12 8 -11 10 8 10 12 0 22 -4 22 -10z m174
-109 c31 -33 27 -39 -38 -47 -51 -7 -57 1 -34 51 15 33 38 32 72 -4z m851 -11
c20 -39 20 -40 -14 -40 -60 0 -75 18 -44 52 23 26 40 22 58 -12z m-1142 -12
c20 -42 9 -53 -38 -38 -43 14 -56 37 -30 56 30 22 51 16 68 -18z m1415 -20 c4
-20 -36 -44 -50 -30 -13 13 12 53 32 50 8 -2 16 -11 18 -20z m473 12 c5 0 9
-7 9 -15 0 -9 -9 -15 -25 -15 -19 0 -25 5 -25 21 0 15 4 19 16 15 9 -3 20 -6
25 -6z m7 -61 c-2 -6 -8 -10 -13 -10 -5 0 -11 4 -13 10 -2 6 4 11 13 11 9 0
15 -5 13 -11z m-583 -29 c3 -5 1 -10 -4 -10 -6 0 -11 5 -11 10 0 6 2 10 4 10
3 0 8 -4 11 -10z m455 -65 c0 -13 7 -39 15 -58 20 -49 19 -67 -5 -67 -13 0
-20 -7 -20 -20 0 -14 7 -20 22 -20 20 0 20 -1 4 -19 -20 -22 -15 -50 14 -76
11 -10 20 -26 20 -37 0 -10 4 -18 9 -18 5 0 12 -13 16 -30 4 -16 11 -32 16
-35 16 -11 9 -35 -18 -63 -14 -14 -28 -35 -29 -47 -12 -76 -27 -123 -44 -145
-12 -14 -23 -33 -27 -42 -3 -10 -11 -18 -18 -18 -13 0 -23 -34 -30 -107 -2
-23 -9 -51 -15 -63 -6 -11 -8 -25 -4 -31 3 -6 -3 -13 -15 -16 -12 -3 -21 -10
-22 -17 -3 -47 -42 -139 -61 -144 -14 -3 -18 -14 -18 -48 0 -24 -2 -44 -4 -44
-2 0 -11 -3 -20 -6 -13 -5 -16 3 -16 47 0 29 6 78 14 108 40 158 38 230 -8
312 -42 74 -259 260 -280 239 -8 -8 -6 -20 6 -41 14 -24 16 -59 2 -59 -11 0
-54 25 -54 31 0 5 -16 11 -36 15 -19 3 -40 14 -46 24 -7 10 -17 16 -24 13 -7
-2 -17 4 -23 15 -8 16 -3 34 23 88 39 79 39 78 -35 160 -27 30 -49 59 -49 64
0 6 -10 15 -22 19 -22 9 -22 9 6 16 19 5 39 2 62 -9 71 -33 109 -11 45 26 -31
17 -68 65 -58 75 3 3 45 -13 92 -36 70 -35 186 -81 202 -81 2 0 -4 11 -13 25
l-16 25 39 0 c21 0 44 5 51 12 6 6 42 12 81 12 38 1 73 5 77 9 14 14 79 7 112
-13 18 -11 35 -20 39 -20 3 0 3 20 0 44 -5 32 -2 47 8 56 8 7 15 22 15 33 0
19 1 20 20 2 11 -10 20 -28 20 -40z m-1680 33 c0 -5 12 -6 28 -3 l27 6 -30
-17 c-55 -33 -244 -15 -193 18 17 10 168 7 168 -4z m1260 -13 c0 -10 -10 -15
-32 -14 -22 1 -26 3 -13 6 11 3 24 9 30 14 13 12 15 11 15 -6z m954 -87 c9
-12 16 -35 16 -50 0 -14 5 -39 11 -55 20 -53 -15 -172 -40 -134 -5 8 -12 53
-16 100 -3 47 -8 103 -11 124 -5 29 -2 37 10 37 8 0 22 -10 30 -22z m-3075
-81 c6 -6 11 -25 11 -43 0 -17 7 -37 16 -44 28 -24 -6 -140 -45 -154 -9 -3
-22 -9 -28 -12 -19 -8 -17 104 3 161 11 33 13 62 9 100 -8 63 6 101 16 42 3
-21 11 -43 18 -50z m2969 41 c7 -7 12 -21 12 -32 0 -24 24 -96 48 -146 26 -55
22 -197 -7 -244 -13 -20 -31 -41 -42 -46 -32 -18 -24 23 11 53 17 15 30 36 30
47 0 37 -33 88 -69 107 -31 16 -37 25 -43 63 -4 25 -10 58 -14 73 -5 24 -3 29
15 34 16 4 20 10 15 22 -15 36 -16 52 -4 66 15 18 32 19 48 3z m-67 -270 c22
-24 23 -38 8 -90 -7 -26 -16 -38 -28 -38 -26 0 -30 8 -18 40 8 22 8 35 -2 54
-15 26 -9 56 10 56 6 0 20 -10 30 -22z m-2815 -53 c7 -19 14 -42 14 -51 0 -14
-2 -14 -16 -3 -21 17 -35 55 -28 74 9 22 13 19 30 -20z m-136 11 c0 -3 -4 -8
-10 -11 -5 -3 -10 -1 -10 4 0 6 5 11 10 11 6 0 10 -2 10 -4z m1320 -69 c39 -6
40 -6 40 -17 0 -5 -9 -10 -20 -10 -12 0 -20 -7 -20 -16 0 -12 -7 -14 -32 -9
-18 4 -36 12 -39 18 -4 5 -16 7 -28 4 -24 -6 -25 -4 -8 24 10 16 19 19 47 15
19 -3 46 -7 60 -9z m218 -84 c-2 -13 -15 -19 -47 -21 -52 -4 -78 14 -35 23 16
4 34 8 39 10 28 9 46 4 43 -12z m243 -139 c10 -12 2 -14 -42 -14 -35 0 -65 -7
-85 -19 -22 -13 -61 -21 -135 -26 -175 -13 -182 -13 -216 1 -47 20 -76 17
-183 -16 -86 -27 -140 -37 -140 -26 0 18 15 36 29 36 10 0 21 3 24 7 7 6 21 9
117 17 30 3 73 11 95 17 75 20 150 29 210 23 33 -3 78 -1 100 4 64 15 212 12
226 -4z m104 -14 c3 -5 -3 -10 -15 -10 -12 0 -18 5 -15 10 3 6 10 10 15 10 5
0 12 -4 15 -10z m42 -16 c-3 -3 -12 -4 -19 -1 -8 3 -5 6 6 6 11 1 17 -2 13 -5z
m-134 -109 c10 -4 23 -2 32 5 22 18 55 2 62 -30 4 -25 8 -27 24 -17 14 9 22 7
40 -8 16 -14 23 -16 26 -7 8 21 32 13 39 -13 6 -26 18 -32 29 -15 14 22 35 10
35 -21 0 -43 -17 -69 -45 -69 -13 0 -26 -4 -29 -9 -11 -17 -83 -23 -104 -10
-18 11 -24 10 -40 -4 -23 -21 -27 -21 -47 -1 -14 14 -23 15 -52 6 -23 -7 -44
-7 -60 -1 -15 6 -31 5 -43 -1 -10 -5 -49 -10 -87 -10 -37 0 -96 -5 -131 -10
-43 -7 -68 -7 -82 0 -13 7 -32 8 -54 2 -21 -6 -39 -6 -50 0 -13 7 -27 5 -52
-8 -28 -16 -38 -17 -54 -6 -14 8 -26 9 -38 3 -34 -18 -136 46 -147 92 -6 23
-4 27 15 27 13 0 24 8 27 20 6 21 28 27 38 11 5 -10 64 15 76 33 14 19 144 35
321 39 47 1 89 5 93 9 9 9 234 3 258 -7z m428 -106 c14 -7 17 -14 10 -23 -5
-6 -10 -32 -9 -56 0 -24 -5 -46 -11 -48 -6 -2 -8 -9 -5 -14 14 -22 19 -74 16
-160 -2 -53 -4 -58 -24 -58 -22 -1 -23 -1 -4 -15 15 -11 16 -15 5 -15 -8 0
-20 5 -26 11 -20 20 -23 -8 -3 -34 17 -22 18 -26 5 -37 -8 -7 -15 -21 -15 -31
0 -11 -5 -19 -10 -19 -16 0 -33 -51 -20 -64 5 -5 10 -17 10 -25 0 -8 -3 -11
-7 -8 -3 4 -12 2 -19 -4 -20 -17 -35 -1 -32 36 3 42 -8 54 -26 30 -7 -10 -17
-15 -22 -12 -5 3 -8 -12 -6 -34 2 -21 8 -39 13 -39 5 0 9 -7 9 -15 0 -18 26
-20 33 -2 4 9 8 8 16 -3 16 -22 13 -30 -9 -30 -11 0 -20 -6 -20 -14 0 -8 -16
-28 -35 -45 -35 -30 -51 -39 -41 -22 3 4 -1 17 -9 27 -13 19 -14 19 -20 -1 -4
-11 -10 -26 -13 -33 -9 -18 -80 -43 -84 -30 -4 12 -58 -11 -58 -25 0 -5 -13
-7 -30 -3 -22 4 -30 2 -30 -9 0 -22 -23 -18 -38 6 -11 17 -19 20 -49 14 -54
-10 -111 35 -65 52 33 12 82 55 82 73 0 28 34 50 89 59 55 9 78 22 67 40 -10
16 -33 13 -40 -4 -7 -19 -39 -19 -91 -1 -42 14 -274 15 -307 2 -30 -13 -29
-37 1 -65 22 -21 28 -34 24 -51 -4 -15 -1 -26 11 -32 20 -11 20 -25 0 -45 -8
-9 -13 -22 -10 -29 8 -20 -7 -17 -32 6 -12 11 -29 21 -39 22 -41 3 -63 -3 -63
-17 0 -22 -21 -18 -27 5 -3 12 -13 20 -22 19 -50 -5 -92 3 -108 19 -10 11 -26
22 -36 25 -10 4 -16 11 -12 16 3 5 1 12 -5 16 -6 3 -13 -1 -16 -9 -13 -35 -74
-2 -81 44 -2 11 -12 29 -23 40 -11 11 -20 33 -20 49 0 16 -5 31 -11 33 -9 3
-15 21 -18 51 -1 4 -8 7 -16 7 -9 0 -20 11 -25 25 -5 14 -13 25 -18 25 -4 0
-7 19 -6 43 0 25 -6 49 -15 60 -10 12 -12 21 -5 25 17 11 24 55 12 69 -7 9 -7
13 1 13 19 0 12 24 -14 49 -30 28 -30 31 -4 78 13 24 17 39 10 41 -6 2 -11 7
-11 12 0 4 11 3 25 -3 26 -12 32 -31 15 -42 -17 -10 -11 -23 14 -29 14 -3 30
-20 40 -41 9 -19 22 -38 29 -42 7 -4 21 -19 30 -32 64 -95 242 -233 347 -270
19 -7 104 -15 191 -17 136 -4 159 -3 173 12 13 12 14 19 5 30 -14 18 -38 18
-45 1 -3 -9 -21 -12 -62 -10 -31 2 -79 4 -107 5 -53 1 -126 40 -139 74 -7 17
11 37 25 28 4 -2 10 0 13 5 3 5 -1 11 -9 15 -8 3 -15 15 -15 26 0 14 4 19 13
14 6 -4 5 0 -3 9 -8 8 -31 20 -50 24 -23 6 -35 15 -34 26 0 9 1 32 2 51 l2 34
99 1 c55 1 120 -3 144 -10 35 -8 50 -8 68 2 13 7 58 16 99 20 41 5 91 11 111
15 43 7 59 -16 31 -44 -9 -9 -21 -27 -27 -39 -5 -12 -30 -33 -55 -46 -53 -28
-61 -49 -25 -65 36 -16 33 -55 -5 -82 -37 -27 -38 -47 -2 -49 98 -6 112 -5
139 17 16 13 39 30 53 39 37 24 130 139 169 208 18 33 36 62 40 65 17 13 40
61 35 73 -3 8 0 18 6 22 6 4 15 18 20 31 11 27 14 28 41 13z m-675 -826 c-10
-10 -19 5 -10 18 6 11 8 11 12 0 2 -7 1 -15 -2 -18z m2 -118 c2 -13 -8 -29
-27 -43 l-30 -22 -15 32 c-9 17 -15 32 -14 33 52 28 82 28 86 0z m102 -11 c0
-8 -5 -12 -10 -9 -6 4 -8 11 -5 16 9 14 15 11 15 -7z m-40 -19 c0 -8 -4 -15
-10 -15 -5 0 -10 7 -10 15 0 8 5 15 10 15 6 0 10 -7 10 -15z m-220 -51 c0 -8
-5 -12 -10 -9 -6 4 -8 11 -5 16 9 14 15 11 15 -7z m1020 -224 c0 -5 -7 -10
-15 -10 -8 0 -15 5 -15 10 0 6 7 10 15 10 8 0 15 -4 15 -10z"/>
<path d="M2700 2300 c0 -5 7 -10 16 -10 8 0 12 5 9 10 -3 6 -10 10 -16 10 -5
0 -9 -4 -9 -10z"/>
<path d="M3215 2230 c4 -6 11 -8 16 -5 14 9 11 15 -7 15 -8 0 -12 -5 -9 -10z"/>
<path d="M2440 1085 c0 -9 6 -12 15 -9 8 4 15 10 15 15 0 5 -7 9 -15 9 -8 0
-15 -7 -15 -15z"/>
<path d="M3111 956 c-9 -10 -9 -16 -1 -21 16 -10 31 7 21 23 -6 10 -10 10 -20
-2z"/>
<path d="M3030 931 c-16 -31 -12 -41 15 -41 21 0 25 5 25 30 0 35 -23 41 -40
11z"/>
<path d="M2066 915 c-4 -11 1 -15 19 -15 16 0 25 6 25 15 0 8 -9 15 -19 15
-10 0 -21 -7 -25 -15z"/>
<path d="M2960 864 c0 -8 5 -12 10 -9 6 4 8 11 5 16 -9 14 -15 11 -15 -7z"/>
<path d="M2160 832 c0 -5 7 -13 16 -16 10 -4 14 -1 12 6 -5 15 -28 23 -28 10z"/>
<path d="M2905 811 c-3 -5 -1 -12 5 -16 5 -3 10 1 10 9 0 18 -6 21 -15 7z"/>
<path d="M2300 795 c14 -7 27 -11 30 -9 6 7 -22 24 -40 23 -9 0 -5 -6 10 -14z"/>
<path d="M1266 564 c-5 -14 -4 -15 9 -4 17 14 19 20 6 20 -5 0 -12 -7 -15 -16z"/>
<path d="M1242 505 c-17 -63 -30 -208 -21 -227 5 -9 5 -27 0 -40 -5 -14 -5
-31 0 -40 6 -10 5 -27 -1 -43 -7 -20 -7 -31 1 -41 7 -8 9 -28 5 -47 -6 -31 14
-80 28 -67 10 11 5 339 -6 356 -4 7 -3 26 3 43 6 17 8 38 5 47 -3 8 -1 24 4
34 6 11 6 28 1 42 -8 21 -9 20 -19 -17z"/>
<path d="M1152 343 c-15 -29 -23 -91 -27 -193 -3 -96 8 -150 32 -150 15 0 18
26 4 34 -5 3 -7 23 -4 45 3 23 1 41 -6 45 -8 5 -8 13 0 27 6 11 7 33 4 49 -3
16 -1 39 5 50 8 15 9 25 2 32 -7 7 -7 20 0 40 12 33 4 49 -10 21z"/>
<path d="M999 273 c-1 -5 -1 -16 0 -25 3 -22 -17 -23 -47 -2 -30 21 -66 10
-52 -16 20 -37 13 -42 -45 -35 -59 8 -70 -2 -39 -36 23 -26 9 -39 -42 -39 -50
0 -88 -15 -78 -31 4 -7 25 -8 55 -4 55 8 79 -4 79 -38 0 -17 -5 -19 -38 -13
-42 6 -53 2 -45 -20 7 -18 94 -19 111 -2 9 9 12 9 12 0 0 -21 20 -13 30 13 5
13 21 42 35 64 27 44 32 76 13 84 -7 3 -3 6 9 6 13 1 30 12 39 26 10 15 26 25
40 25 29 0 40 16 24 35 -13 15 -59 21 -61 8z m-111 -139 c21 -6 31 -42 15 -57
-9 -9 -53 33 -53 50 0 15 5 15 38 7z"/>
<path d="M1053 183 c-3 -10 -8 -22 -11 -27 -3 -5 0 -6 5 -3 11 7 25 47 17 47
-3 0 -7 -8 -11 -17z"/>
<path d="M444 145 c-18 -14 -16 -15 25 -13 25 2 46 9 49 16 5 17 -50 16 -74
-3z"/>
<path d="M320 138 c-14 -5 -46 -7 -71 -5 -29 4 -56 1 -72 -8 -19 -10 -37 -11
-68 -4 -43 10 -79 5 -79 -11 0 -16 51 -23 94 -14 26 6 51 6 68 0 19 -7 35 -6
50 1 37 19 51 20 83 11 19 -5 40 -4 58 3 28 12 36 26 15 26 -7 0 -22 2 -33 6
-11 3 -31 1 -45 -5z"/>
<path d="M1032 101 c-6 -16 -6 -34 -1 -42 4 -8 6 -24 2 -36 -4 -19 -1 -23 16
-23 22 0 30 33 11 45 -6 4 -7 23 -4 46 8 46 -9 53 -24 10z"/>
<path d="M3472 88 c2 -6 10 -14 16 -16 7 -2 10 2 6 12 -7 18 -28 22 -22 4z"/>
<path d="M360 60 c0 -13 27 -13 35 0 3 6 -3 10 -14 10 -12 0 -21 -4 -21 -10z"/>
<path d="M577 53 c-15 -14 -6 -24 16 -18 35 11 44 25 16 25 -14 0 -29 -3 -32
-7z"/>
<path d="M203 43 c-27 -11 -11 -23 31 -23 26 0 48 6 56 15 11 13 7 15 -31 14
-24 0 -50 -3 -56 -6z"/>
<path d="M38 33 c-21 -2 -38 -9 -38 -14 0 -6 9 -7 20 -4 11 4 36 1 56 -5 28
-9 42 -9 67 1 l31 13 -24 7 c-27 8 -53 8 -112 2z"/>
<path d="M410 30 c-12 -8 -9 -10 12 -10 15 0 30 5 33 10 8 13 -25 13 -45 0z"/>
<path d="M951 14 c0 -11 3 -14 6 -6 3 7 2 16 -1 19 -3 4 -6 -2 -5 -13z"/>
<path d="M638 3 c6 -2 18 -2 25 0 6 3 1 5 -13 5 -14 0 -19 -2 -12 -5z"/>
</g>
</svg>
